<svg width="500" height="150" viewBox="0 0 500 150" fill="none" xmlns="http://www.w3.org/2000/svg">
<path fill-rule="evenodd" clip-rule="evenodd" d="M13.439 11.3899L0.762195 22.7816L0.39939 45.3285L0.0350606 67.8771L6.49695 73.2117C10.0503 76.1464 14.4832 80.1168 16.3476 82.0358C20.8735 86.6933 25.689 88.5536 38.6723 90.657C44.6509 91.6257 53.5335 93.0687 58.4116 93.8631C68.8933 95.5709 71.6463 97.6659 71.6463 103.936C71.6463 109.882 69.7088 110.615 53.9848 110.615H41.1463L39.3125 103.073L37.4771 95.5307H18.7393H0L0.0792684 111.034L0.158537 126.536L13.3277 137.849L26.497 149.162H56.5107H86.5229L95.4726 141.536C100.393 137.341 104.649 133.193 104.928 132.318C105.209 131.442 106.114 130.726 106.944 130.726C111.782 130.726 112.805 125.814 112.805 102.57V79.2034L107.48 75.2162C104.552 73.024 102.151 70.6626 102.145 69.9721C102.139 69.2816 101.483 68.7151 100.689 68.7151C99.8933 68.7151 97.3918 66.8296 95.1296 64.5251C92.6006 61.9475 89.1966 60.3251 86.2866 60.3101C83.6844 60.2966 77.439 59.2542 72.4085 57.9922C67.378 56.7302 59.5427 55.1899 54.9954 54.5681C43.753 53.033 40.8643 51.1106 41.4482 45.5581C41.9207 41.0682 41.9421 41.0615 56.5015 40.5855L71.0838 40.1095L72.5076 46.4514L73.9329 52.7933L93.3689 53.2626L112.805 53.7318V39.3151C112.805 29.9581 112.136 24.2045 110.899 22.9173C109.852 21.8263 105.221 17.5793 100.61 13.4765C95.9985 9.37542 90.9985 4.66592 89.4985 3.01006C87.0579 0.315086 83.593 0 56.4436 0H26.1174L13.439 11.3899ZM132.622 17.4855C132.622 36.4592 131.976 35.0966 142.149 37.5855L146.341 38.6112V75.352V112.093L139.863 113.499L133.384 114.903L132.95 132.034L132.515 149.162H168.392H204.268V132.35C204.268 114.211 204.659 114.996 194.741 113.184L189.024 112.138V75.3754V38.6112L192.835 37.7413C194.931 37.2637 198.361 36.4793 200.457 36.0017C204.23 35.1402 204.268 34.9542 204.268 17.5659V0H168.445H132.622V17.4855ZM241.183 17.9128L241.616 35.8274L246.726 37.2788C251.059 38.5106 251.686 39.2916 250.848 42.4106C249.322 48.0972 245.797 61.5838 242.226 75.419C232.262 114.002 233.261 111.756 225.306 113.482L218.75 114.903L218.316 132.034L217.881 149.162H247.66H277.439V131.774V114.385L272.989 113.407C268.668 112.456 268.587 112.259 270.197 106.493L271.854 100.559H285.139C297.628 100.559 298.48 100.785 299.345 104.33C300.905 110.737 300.456 111.905 295.732 113.715L291.159 115.468V132.315V149.162H326.22H361.28V131.564V113.966H356.779C347.215 113.966 345.062 111.387 341.581 95.7536C339.808 87.7961 337.312 77.1369 336.034 72.067C334.756 66.9972 333.131 59.8324 332.422 56.1452C331.715 52.4581 328.912 40.3911 326.192 29.3296C323.474 18.2682 320.918 7.14469 320.512 4.60894L319.776 0H280.264H240.75L241.183 17.9128ZM372.28 17.9966C372.678 34.5201 372.963 36.0352 375.762 36.4978C386.639 38.2961 385.671 34.5804 385.671 74.514C385.671 112.959 385.875 111.985 377.419 113.881L372.713 114.935L372.279 132.049L371.844 149.162H407.012H442.18L441.745 132.034L441.311 114.903L434.832 113.499C428.523 112.13 428.354 111.922 428.354 105.488V98.8827H451.143C467.709 98.8827 474.267 98.3112 475.152 96.7877C475.823 95.6363 479.802 91.7028 483.994 88.0475C488.186 84.3922 493.503 79.4916 495.808 77.1587L500 72.9151V49.1112C500 30.367 499.543 25.0207 497.849 23.9665C496.666 23.229 493.407 20.3547 490.608 17.5793C487.808 14.8039 482.361 9.71396 478.502 6.26648L471.485 0H421.666H371.848L372.28 17.9966ZM457.012 42.2346C459.654 45.1391 459.259 53.6983 456.319 57.2698C454.259 59.7737 451.463 60.3352 441.075 60.3352H428.354V50.2793V40.2235H441.768C450.169 40.2235 455.866 40.9743 457.012 42.2346ZM289.575 66.6201L290.837 72.067H284.727C277.884 72.067 277.965 72.6335 282.28 54.9318L284.21 47.0162L286.262 54.0939C287.39 57.9871 288.881 63.6251 289.575 66.6201Z" fill="#00FF00"/>
<path fill-rule="evenodd" clip-rule="evenodd" d="M13.439 11.3899L0.762195 22.7816L0.39939 45.3285L0.0350606 67.8771L6.49695 73.2117C10.0503 76.1464 14.4832 80.1168 16.3476 82.0358C20.8735 86.6933 25.689 88.5536 38.6723 90.657C44.6509 91.6257 53.5335 93.0687 58.4116 93.8631C68.8933 95.5709 71.6463 97.6659 71.6463 103.936C71.6463 109.882 69.7088 110.615 53.9848 110.615H41.1463L39.3125 103.073L37.4771 95.5307H18.7393H0L0.0792684 111.034L0.158537 126.536L13.3277 137.849L26.497 149.162H56.5107H86.5229L95.4726 141.536C100.393 137.341 104.649 133.193 104.928 132.318C105.209 131.442 106.114 130.726 106.944 130.726C111.782 130.726 112.805 125.814 112.805 102.57V79.2034L107.48 75.2162C104.552 73.024 102.151 70.6626 102.145 69.9721C102.139 69.2816 101.483 68.7151 100.689 68.7151C99.8933 68.7151 97.3918 66.8296 95.1296 64.5251C92.6006 61.9475 89.1966 60.3251 86.2866 60.3101C83.6844 60.2966 77.439 59.2542 72.4085 57.9922C67.378 56.7302 59.5427 55.1899 54.9954 54.5681C43.753 53.033 40.8643 51.1106 41.4482 45.5581C41.9207 41.0682 41.9421 41.0615 56.5015 40.5855L71.0838 40.1095L72.5076 46.4514L73.9329 52.7933L93.3689 53.2626L112.805 53.7318V39.3151C112.805 29.9581 112.136 24.2045 110.899 22.9173C109.852 21.8263 105.221 17.5793 100.61 13.4765C95.9985 9.37542 90.9985 4.66592 89.4985 3.01006C87.0579 0.315086 83.593 0 56.4436 0H26.1174L13.439 11.3899ZM132.622 17.4855C132.622 36.4592 131.976 35.0966 142.149 37.5855L146.341 38.6112V75.352V112.093L139.863 113.499L133.384 114.903L132.95 132.034L132.515 149.162H168.392H204.268V132.35C204.268 114.211 204.659 114.996 194.741 113.184L189.024 112.138V75.3754V38.6112L192.835 37.7413C194.931 37.2637 198.361 36.4793 200.457 36.0017C204.23 35.1402 204.268 34.9542 204.268 17.5659V0H168.445H132.622V17.4855ZM241.183 17.9128L241.616 35.8274L246.726 37.2788C251.059 38.5106 251.686 39.2916 250.848 42.4106C249.322 48.0972 245.797 61.5838 242.226 75.419C232.262 114.002 233.261 111.756 225.306 113.482L218.75 114.903L218.316 132.034L217.881 149.162H247.66H277.439V132.315V115.468L273.037 113.78C268.841 112.173 268.709 111.821 270.242 106.326L271.854 100.559H285.139C297.628 100.559 298.48 100.785 299.345 104.33C300.905 110.737 300.456 111.905 295.732 113.715L291.159 115.468V132.315V149.162H326.22H361.28V131.564V113.966H356.806C354.346 113.966 350.637 113.258 348.566 112.391C344.79 110.814 344.662 110.459 340.037 88.8268C338.837 83.2207 336.691 73.9777 328.357 38.5475C326.297 29.7905 323.602 18.7877 322.367 14.0983C321.133 9.40894 320.122 4.31732 320.122 2.78547C320.122 0.259774 316.416 0 280.436 0H240.75L241.183 17.9128ZM372.28 17.9966C372.678 34.5201 372.963 36.0352 375.762 36.4978C386.639 38.2961 385.671 34.5804 385.671 74.514C385.671 112.959 385.875 111.985 377.419 113.881L372.713 114.935L372.279 132.049L371.844 149.162H407.012H442.18L441.745 132.034L441.311 114.903L434.832 113.499C428.523 112.13 428.354 111.922 428.354 105.488V98.8827H451.143C467.709 98.8827 474.267 98.3112 475.152 96.7877C475.823 95.6363 479.802 91.7028 483.994 88.0475C488.186 84.3922 493.503 79.4916 495.808 77.1587L500 72.9151V49.1112C500 30.367 499.543 25.0207 497.849 23.9665C496.666 23.229 493.407 20.3547 490.608 17.5793C487.808 14.8039 482.361 9.71396 478.502 6.26648L471.485 0H421.666H371.848L372.28 17.9966ZM457.012 42.2346C459.654 45.1391 459.259 53.6983 456.319 57.2698C454.259 59.7737 451.463 60.3352 441.075 60.3352H428.354V50.2793V40.2235H441.768C450.169 40.2235 455.866 40.9743 457.012 42.2346ZM289.575 66.6201L290.837 72.067H284.901C278.059 72.067 277.338 69.5313 281.25 59.2391C282.508 55.9291 283.582 51.6168 283.639 49.6559C283.739 46.1564 286.979 55.4145 289.575 66.6201Z" fill="#60CF28"/>
<path fill-rule="evenodd" clip-rule="evenodd" d="M13.439 11.3899L0.762195 22.7816L0.39939 45.3285L0.0350606 67.8771L6.49695 73.2117C10.0503 76.1464 14.4832 80.1168 16.3476 82.0358C20.8735 86.6933 25.689 88.5536 38.6723 90.657C44.6509 91.6257 53.5335 93.0687 58.4116 93.8631C68.8933 95.5709 71.6463 97.6659 71.6463 103.936C71.6463 109.882 69.7088 110.615 53.9848 110.615H41.1463L39.3125 103.073L37.4771 95.5307H18.7393H0L0.0792684 111.034L0.158537 126.536L13.3277 137.849L26.497 149.162H56.5107H86.5229L95.4726 141.536C100.393 137.341 104.649 133.193 104.928 132.318C105.209 131.442 106.114 130.726 106.944 130.726C111.782 130.726 112.805 125.814 112.805 102.57V79.2034L107.48 75.2162C104.552 73.024 102.151 70.6626 102.145 69.9721C102.139 69.2816 101.483 68.7151 100.689 68.7151C99.8933 68.7151 97.3918 66.8296 95.1296 64.5251C92.6006 61.9475 89.1966 60.3251 86.2866 60.3101C83.6844 60.2966 77.439 59.2542 72.4085 57.9922C67.378 56.7302 59.5427 55.1899 54.9954 54.5682C43.753 53.033 40.8643 51.1106 41.4482 45.5581C41.9207 41.0682 41.9421 41.0615 56.5015 40.5855L71.0838 40.1095L72.5076 46.4514L73.9329 52.7933L93.3689 53.2626L112.805 53.7318V39.3151C112.805 29.9581 112.136 24.2045 110.899 22.9173C109.852 21.8263 105.221 17.5793 100.61 13.4765C95.9985 9.37542 90.9985 4.66592 89.4985 3.01006C87.0579 0.315086 83.593 0 56.4436 0H26.1174L13.439 11.3899ZM132.622 17.4855C132.622 36.4592 131.976 35.0966 142.149 37.5855L146.341 38.6112V75.352V112.093L139.863 113.499L133.384 114.903L132.95 132.034L132.515 149.162H168.392H204.268V132.35C204.268 114.211 204.659 114.996 194.741 113.184L189.024 112.138V75.3754V38.6112L192.835 37.7413C194.931 37.2637 198.361 36.4793 200.457 36.0017C204.23 35.1402 204.268 34.9542 204.268 17.5659V0H168.445H132.622V17.4855ZM240.854 17.4989C240.854 27.124 241.369 35.348 241.997 35.7771C242.625 36.2061 243.14 28.8972 243.14 19.5352V2.51397L279.535 2.0648C305.104 1.74804 316.555 2.1838 318.026 3.52626C319.657 5.01453 320.122 4.8352 320.122 2.71844C320.122 0.279891 316.032 0 280.488 0H240.854V17.4989ZM372.28 17.9966C372.678 34.5201 372.963 36.0352 375.762 36.4978C386.639 38.2961 385.671 34.5804 385.671 74.514C385.671 112.959 385.875 111.985 377.419 113.881L372.713 114.935L372.279 132.049L371.844 149.162H407.012H442.18L441.745 132.034L441.311 114.903L434.832 113.499C428.523 112.13 428.354 111.922 428.354 105.488V98.8827H451.143C467.709 98.8827 474.267 98.3112 475.152 96.7877C475.823 95.6363 479.802 91.7028 483.994 88.0475C488.186 84.3922 493.503 79.4916 495.808 77.1587L500 72.9151V49.1112C500 30.367 499.543 25.0207 497.849 23.9665C496.666 23.229 493.407 20.3547 490.608 17.5793C487.808 14.8039 482.361 9.71396 478.502 6.26648L471.485 0H421.666H371.848L372.28 17.9966ZM321.177 14.2458C322.061 21.0285 322.713 22.9173 323.73 21.6486C324.038 21.2648 323.393 17.933 322.297 14.2458L320.303 7.5419L321.177 14.2458ZM324.816 29.4687C324.889 31.4212 325.25 31.8184 325.736 30.4827C326.177 29.2726 326.122 27.8263 325.616 27.2698C325.11 26.7134 324.75 27.7022 324.816 29.4687ZM246.951 36.8715C248.209 37.7648 249.924 38.4955 250.762 38.4955C251.601 38.4955 251.258 37.7648 250 36.8715C248.742 35.9782 247.027 35.2475 246.189 35.2475C245.351 35.2475 245.694 35.9782 246.951 36.8715ZM326.457 38.5475C326.451 39.9302 327.765 44.0782 329.378 47.7654C330.991 51.4525 331.884 52.5838 331.363 50.2793C329.937 43.9726 326.47 35.6799 326.457 38.5475ZM250.245 44.4922C248.134 49.5855 247.881 53.3397 249.803 51.0335C251.184 49.3777 253.518 40.2235 252.561 40.2235C252.259 40.2235 251.218 42.1441 250.245 44.4922ZM457.012 42.2346C459.654 45.1391 459.259 53.6983 456.319 57.2698C454.259 59.7737 451.463 60.3352 441.075 60.3352H428.354V50.2793V40.2235H441.768C450.169 40.2235 455.866 40.9743 457.012 42.2346ZM281.48 51.0637C281.008 52.4162 281.277 53.9698 282.079 54.5145C282.881 55.0592 283.537 53.9514 283.537 52.0542C283.537 48.0067 282.689 47.5994 281.48 51.0637ZM285.253 50.2793C285.223 51.662 286.14 55.0559 287.293 57.8212C288.444 60.5866 289.412 61.7179 289.442 60.3352C289.473 58.9525 288.555 55.5587 287.402 52.7933C286.252 50.0279 285.284 48.8966 285.253 50.2793ZM247.072 56.4268C247.006 57.5045 246.556 59.767 246.073 61.4548C245.239 64.3726 245.284 64.3777 246.944 61.5285C247.905 59.881 248.354 57.6184 247.942 56.5006C247.401 55.0341 247.159 55.014 247.072 56.4268ZM330.924 56.9832C330.877 58.3659 331.505 60.6285 332.317 62.0112C334.117 65.0749 334.117 62.4285 332.317 57.8212C331.453 55.6106 330.979 55.3257 330.924 56.9832ZM279.489 59.5693C278.992 60.9922 278.927 62.5307 279.343 62.9883C279.761 63.4458 280.466 62.281 280.913 60.4022C281.864 56.4084 280.808 55.7916 279.489 59.5693ZM289.741 66.5212C289.683 68.5408 290.32 70.6592 291.159 71.229C292.962 72.4542 292.962 70.8134 291.159 66.2011C289.895 62.9698 289.845 62.9816 289.741 66.5212ZM244.023 68.0162C244.096 69.9687 244.457 70.3659 244.944 69.0302C245.384 67.8201 245.329 66.3737 244.823 65.8173C244.317 65.2609 243.957 66.2497 244.023 68.0162ZM334.655 72.067C335.133 76.2151 336.172 80.3246 336.968 81.2011C338.774 83.1888 338.762 83.0849 336.035 72.905L333.79 64.5251L334.655 72.067ZM276.931 68.157C275.319 69.9285 275.741 71.6346 278.029 72.6C279.512 73.2268 279.913 72.5296 279.375 70.2654C278.523 66.6805 278.383 66.5598 276.931 68.157ZM242.498 73.1866C242.433 74.2642 241.983 76.5268 241.5 78.2145C240.666 81.1324 240.71 81.1374 242.37 78.2883C243.332 76.6408 243.78 74.3782 243.369 73.2603C242.828 71.7939 242.585 71.7737 242.498 73.1866ZM237.893 91.6475C236.938 95.1654 235.364 100.951 234.396 104.504C233.383 108.233 231.314 111.553 229.506 112.359C227.553 113.227 227.235 113.784 228.659 113.834C232.418 113.966 234.015 111.848 236.142 103.911C237.252 99.7626 238.77 94.1732 239.514 91.4883C240.258 88.8034 240.59 86.3028 240.25 85.9291C239.912 85.5553 238.851 88.1296 237.893 91.6475ZM339.538 95.9497C340.361 97.1028 341.479 100.612 342.02 103.751C343.201 110.586 345.524 114.005 348.89 113.861C350.642 113.785 350.404 113.325 348.085 112.297C346.043 111.391 344.413 108.737 343.78 105.28C342.059 95.8994 341.32 93.8548 339.649 93.8548C338.581 93.8548 338.544 94.5587 339.538 95.9497ZM293.922 100.027C295.021 100.512 296.337 100.451 296.843 99.895C297.349 99.3385 296.45 98.943 294.843 99.0151C293.067 99.0955 292.706 99.4927 293.922 100.027ZM268.573 106.418C267.616 108.726 267.425 110.615 268.148 110.615C269.413 110.615 271.694 103.74 270.767 102.719C270.517 102.446 269.529 104.108 268.573 106.418ZM299.716 106.958C300.503 111.282 300.059 112.058 295.883 113.658L291.159 115.468L291.477 132.734L291.797 150L292.297 133.49L292.797 116.98L297.312 115.106C300.794 113.661 301.829 112.187 301.829 108.67C301.829 106.161 301.154 103.649 300.328 103.088C299.402 102.459 299.168 103.946 299.716 106.958ZM269.055 113.966C269.573 114.888 271.305 115.642 272.902 115.642C275.54 115.642 275.854 117.233 276.302 132.821L276.796 150L277.117 132.779C277.436 115.699 277.407 115.547 273.529 113.925C268.608 111.868 267.88 111.875 269.055 113.966ZM219.556 115.577C215.927 118.099 218.402 118.634 222.561 116.224C224.662 115.007 225.346 114.017 224.085 114.017C222.828 114.017 220.79 114.719 219.556 115.577ZM352.261 114.568C354.082 116.294 361.28 117.178 361.28 115.674C361.28 114.736 359.108 113.966 356.453 113.966C353.799 113.966 351.912 114.238 352.261 114.568Z" fill="#81C266"/>
<path fill-rule="evenodd" clip-rule="evenodd" d="M13.439 11.3899L0.762195 22.7816L0.39939 45.3285L0.0350606 67.8771L6.49695 73.2117C10.0503 76.1464 14.4832 80.1168 16.3476 82.0358C20.8735 86.6933 25.689 88.5536 38.6723 90.657C44.6509 91.6257 53.5335 93.0687 58.4116 93.8631C68.8933 95.5709 71.6463 97.6659 71.6463 103.936C71.6463 109.882 69.7088 110.615 53.9848 110.615H41.1463L39.3125 103.073L37.4771 95.5307H18.7393H0L0.0792684 111.034L0.158537 126.536L13.3277 137.849L26.497 149.162H56.5107H86.5229L95.4726 141.536C100.393 137.341 104.649 133.193 104.928 132.318C105.209 131.442 106.114 130.726 106.944 130.726C111.782 130.726 112.805 125.814 112.805 102.57V79.2034L107.48 75.2162C104.552 73.024 102.151 70.6626 102.145 69.9721C102.139 69.2816 101.483 68.7151 100.689 68.7151C99.8933 68.7151 97.3918 66.8296 95.1296 64.5251C92.6006 61.9475 89.1966 60.3251 86.2866 60.3101C83.6844 60.2966 77.439 59.2542 72.4085 57.9922C67.378 56.7302 59.5427 55.1899 54.9954 54.5681C43.753 53.033 40.8643 51.1106 41.4482 45.5581C41.9207 41.0682 41.9421 41.0615 56.5015 40.5855L71.0838 40.1095L72.5076 46.4514L73.9329 52.7933L93.3689 53.2626L112.805 53.7318V39.3151C112.805 29.9581 112.136 24.2045 110.899 22.9173C109.852 21.8263 105.221 17.5793 100.61 13.4765C95.9985 9.37542 90.9985 4.66592 89.4985 3.01006C87.0579 0.315086 83.593 0 56.4436 0H26.1174L13.439 11.3899ZM132.622 17.4855C132.622 36.4592 131.976 35.0966 142.149 37.5855L146.341 38.6112V75.352V112.093L139.863 113.499L133.384 114.903L132.95 132.034L132.515 149.162H168.392H204.268V132.35C204.268 114.211 204.659 114.996 194.741 113.184L189.024 112.138V75.3754V38.6112L192.835 37.7413C194.931 37.2637 198.361 36.4793 200.457 36.0017C204.23 35.1402 204.268 34.9542 204.268 17.5659V0H168.445H132.622V17.4855ZM372.28 17.9966C372.678 34.5201 372.963 36.0352 375.762 36.4978C386.639 38.2961 385.671 34.5804 385.671 74.514C385.671 112.959 385.875 111.985 377.419 113.881L372.713 114.935L372.279 132.049L371.844 149.162H407.012H442.18L441.745 132.034L441.311 114.903L434.832 113.499C428.523 112.13 428.354 111.922 428.354 105.488V98.8827H451.143C467.709 98.8827 474.267 98.3112 475.152 96.7877C475.823 95.6363 479.802 91.7028 483.994 88.0475C488.186 84.3922 493.503 79.4916 495.808 77.1587L500 72.9151V49.1112C500 30.367 499.543 25.0207 497.849 23.9665C496.666 23.229 493.407 20.3547 490.608 17.5793C487.808 14.8039 482.361 9.71396 478.502 6.26648L471.485 0H421.666H371.848L372.28 17.9966ZM457.012 42.2346C459.654 45.1391 459.259 53.6983 456.319 57.2698C454.259 59.7737 451.463 60.3352 441.075 60.3352H428.354V50.2793V40.2235H441.768C450.169 40.2235 455.866 40.9743 457.012 42.2346ZM356.707 114.625C356.707 114.987 357.736 115.718 358.994 116.249C360.252 116.779 361.28 116.482 361.28 115.59C361.28 114.697 360.252 113.966 358.994 113.966C357.736 113.966 356.707 114.263 356.707 114.625Z" fill="#55AA55"/>
<path fill-rule="evenodd" clip-rule="evenodd" d="M13.439 11.3899L0.762195 22.7816L0.39939 45.3285L0.0350606 67.8771L6.49695 73.2117C10.0503 76.1464 14.4832 80.1168 16.3476 82.0358C20.8735 86.6933 25.689 88.5536 38.6723 90.657C44.6509 91.6257 53.5335 93.0687 58.4116 93.8631C68.8933 95.5709 71.6463 97.6659 71.6463 103.936C71.6463 109.882 69.7088 110.615 53.9848 110.615H41.1463L39.3125 103.073L37.4771 95.5307H18.7393H0L0.0792684 111.034L0.158537 126.536L13.3277 137.849L26.497 149.162H56.5107H86.5229L95.4726 141.536C100.393 137.341 104.649 133.193 104.928 132.318C105.209 131.442 106.114 130.726 106.944 130.726C111.782 130.726 112.805 125.814 112.805 102.57V79.2034L107.48 75.2162C104.552 73.024 102.151 70.6626 102.145 69.9721C102.139 69.2816 101.483 68.7151 100.689 68.7151C99.8933 68.7151 97.3918 66.8296 95.1296 64.5251C92.6006 61.9475 89.1966 60.3251 86.2866 60.3101C83.6844 60.2966 77.439 59.2542 72.4085 57.9922C67.378 56.7302 59.5427 55.1899 54.9954 54.5681C43.753 53.033 40.8643 51.1106 41.4482 45.5581C41.9207 41.0682 41.9421 41.0615 56.5015 40.5855L71.0838 40.1095L72.5076 46.4514L73.9329 52.7933L93.3689 53.2626L112.805 53.7318V39.3151C112.805 29.9581 112.136 24.2045 110.899 22.9173C109.852 21.8263 105.221 17.5793 100.61 13.4765C95.9985 9.37542 90.9985 4.66592 89.4985 3.01006C87.0579 0.315086 83.593 0 56.4436 0H26.1174L13.439 11.3899ZM132.622 17.4855C132.622 36.4592 131.976 35.0966 142.149 37.5855L146.341 38.6112V75.352V112.093L139.863 113.499L133.384 114.903L132.95 132.034L132.515 149.162H168.392H204.268V132.35C204.268 114.211 204.659 114.996 194.741 113.184L189.024 112.138V75.3754V38.6112L192.835 37.7413C194.931 37.2637 198.361 36.4793 200.457 36.0017C204.23 35.1402 204.268 34.9542 204.268 17.5659V0H168.445H132.622V17.4855ZM372.28 17.9966C372.678 34.5201 372.963 36.0352 375.762 36.4978C386.639 38.2961 385.671 34.5804 385.671 74.514C385.671 112.959 385.875 111.985 377.419 113.881L372.713 114.935L372.279 132.049L371.844 149.162H407.012H442.18L441.745 132.034L441.311 114.903L434.832 113.499C428.523 112.13 428.354 111.922 428.354 105.488V98.8827H451.143C467.709 98.8827 474.267 98.3112 475.152 96.7877C475.823 95.6363 479.802 91.7028 483.994 88.0475C488.186 84.3922 493.503 79.4916 495.808 77.1587L500 72.9151V49.1112C500 30.367 499.543 25.0207 497.849 23.9665C496.666 23.229 493.407 20.3547 490.608 17.5793C487.808 14.8039 482.361 9.71396 478.502 6.26648L471.485 0H421.666H371.848L372.28 17.9966ZM457.012 42.2346C459.654 45.1391 459.259 53.6983 456.319 57.2698C454.259 59.7737 451.463 60.3352 441.075 60.3352H428.354V50.2793V40.2235H441.768C450.169 40.2235 455.866 40.9743 457.012 42.2346Z" fill="#FFFF00"/>
<path fill-rule="evenodd" clip-rule="evenodd" d="M13.439 11.3899L0.762195 22.7816L0.39939 45.3285L0.0350606 67.8771L6.49695 73.2117C10.0503 76.1464 14.4832 80.1168 16.3476 82.0358C20.8735 86.6933 25.689 88.5536 38.6723 90.657C44.6509 91.6257 53.5335 93.0687 58.4116 93.8631C68.8933 95.5709 71.6463 97.6659 71.6463 103.936C71.6463 109.882 69.7088 110.615 53.9848 110.615H41.1463L39.3125 103.073L37.4771 95.5307H18.7393H0L0.0792684 111.034L0.158537 126.536L13.3277 137.849L26.497 149.162H56.5107H86.5229L95.4726 141.536C100.393 137.341 104.649 133.193 104.928 132.318C105.209 131.442 106.114 130.726 106.944 130.726C111.782 130.726 112.805 125.814 112.805 102.57V79.2034L107.48 75.2162C104.552 73.024 102.151 70.6626 102.145 69.9721C102.139 69.2816 101.483 68.7151 100.689 68.7151C99.8933 68.7151 97.3918 66.8296 95.1296 64.5251C92.6006 61.9475 89.1966 60.3251 86.2866 60.3101C83.6844 60.2966 77.439 59.2542 72.4085 57.9922C67.378 56.7302 59.5427 55.1899 54.9954 54.5681C43.753 53.033 40.8643 51.1106 41.4482 45.5581C41.9207 41.0682 41.9421 41.0615 56.5015 40.5855L71.0838 40.1095L72.5076 46.4514L73.9329 52.7933L93.3689 53.2626L112.805 53.7318V39.3151C112.805 29.9581 112.136 24.2045 110.899 22.9173C109.852 21.8263 105.221 17.5793 100.61 13.4765C95.9985 9.37542 90.9985 4.66592 89.4985 3.01006C87.0579 0.315086 83.593 0 56.4436 0H26.1174L13.439 11.3899ZM132.622 17.4855C132.622 36.4592 131.976 35.0966 142.149 37.5855L146.341 38.6112V75.352V112.093L139.863 113.499L133.384 114.903L132.95 132.034L132.515 149.162H168.392H204.268V132.35C204.268 114.211 204.659 114.996 194.741 113.184L189.024 112.138V75.3754V38.6112L192.835 37.7413C194.931 37.2637 198.361 36.4793 200.457 36.0017C204.23 35.1402 204.268 34.9542 204.268 17.5659V0H168.445H132.622V17.4855ZM372.28 17.9966C372.678 34.5201 372.963 36.0352 375.762 36.4978C386.639 38.2961 385.671 34.5804 385.671 74.514C385.671 112.959 385.875 111.985 377.419 113.881L372.713 114.935L372.279 132.049L371.844 149.162H407.012H442.18L441.745 132.034L441.311 114.903L434.832 113.499C428.523 112.13 428.354 111.922 428.354 105.488V98.8827H451.143C467.709 98.8827 474.267 98.3112 475.152 96.7877C475.823 95.6363 479.802 91.7028 483.994 88.0475C488.186 84.3922 493.503 79.4916 495.808 77.1587L500 72.9151V49.1112C500 30.367 499.543 25.0207 497.849 23.9665C496.666 23.229 493.407 20.3547 490.608 17.5793C487.808 14.8039 482.361 9.71396 478.502 6.26648L471.485 0H421.666H371.848L372.28 17.9966ZM457.012 42.2346C459.654 45.1391 459.259 53.6983 456.319 57.2698C454.259 59.7737 451.463 60.3352 441.075 60.3352H428.354V50.2793V40.2235H441.768C450.169 40.2235 455.866 40.9743 457.012 42.2346Z" fill="white"/>
<path fill-rule="evenodd" clip-rule="evenodd" d="M13.439 11.3899L0.762195 22.7816L0.39939 45.3285L0.0350606 67.8771L6.49695 73.2117C10.0503 76.1464 14.4832 80.1168 16.3476 82.0358C20.8735 86.6933 25.689 88.5536 38.6723 90.657C44.6509 91.6257 53.5335 93.0687 58.4116 93.8631C68.8933 95.5709 71.6463 97.6659 71.6463 103.936C71.6463 109.882 69.7088 110.615 53.9848 110.615H41.1463L39.3125 103.073L37.4771 95.5307H18.7393H0L0.0792684 111.034L0.158537 126.536L13.3277 137.849L26.497 149.162H56.5107H86.5229L95.4726 141.536C100.393 137.341 104.649 133.193 104.928 132.318C105.209 131.442 106.114 130.726 106.944 130.726C111.782 130.726 112.805 125.814 112.805 102.57V79.2034L107.48 75.2162C104.552 73.024 102.151 70.6626 102.145 69.9721C102.139 69.2816 101.483 68.7151 100.689 68.7151C99.8933 68.7151 97.3918 66.8296 95.1296 64.5251C92.6006 61.9475 89.1966 60.3251 86.2866 60.3101C83.6844 60.2966 77.439 59.2542 72.4085 57.9922C67.378 56.7302 59.5427 55.1899 54.9954 54.5681C43.753 53.033 40.8643 51.1106 41.4482 45.5581C41.9207 41.0682 41.9421 41.0615 56.5015 40.5855L71.0838 40.1095L72.5076 46.4514L73.9329 52.7933L93.3689 53.2626L112.805 53.7318V39.3151C112.805 29.9581 112.136 24.2045 110.899 22.9173C109.852 21.8263 105.221 17.5793 100.61 13.4765C95.9985 9.37542 90.9985 4.66592 89.4985 3.01006C87.0579 0.315086 83.593 0 56.4436 0H26.1174L13.439 11.3899ZM132.622 17.4855C132.622 36.4592 131.976 35.0966 142.149 37.5855L146.341 38.6112V75.352V112.093L139.863 113.499L133.384 114.903L132.95 132.034L132.515 149.162H168.392H204.268V132.35C204.268 114.211 204.659 114.996 194.741 113.184L189.024 112.138V75.3754V38.6112L192.835 37.7413C194.931 37.2637 198.361 36.4793 200.457 36.0017C204.23 35.1402 204.268 34.9542 204.268 17.5659V0H168.445H132.622V17.4855ZM372.28 17.9966C372.678 34.5201 372.963 36.0352 375.762 36.4978C386.639 38.2961 385.671 34.5804 385.671 74.514C385.671 112.959 385.875 111.985 377.419 113.881L372.713 114.935L372.279 132.049L371.844 149.162H407.012H442.18L441.745 132.034L441.311 114.903L434.832 113.499C428.523 112.13 428.354 111.922 428.354 105.488V98.8827H451.143C467.709 98.8827 474.267 98.3112 475.152 96.7877C475.823 95.6363 479.802 91.7028 483.994 88.0475C488.186 84.3922 493.503 79.4916 495.808 77.1587L500 72.9151V49.1112C500 30.367 499.543 25.0207 497.849 23.9665C496.666 23.229 493.407 20.3547 490.608 17.5793C487.808 14.8039 482.361 9.71396 478.502 6.26648L471.485 0H421.666H371.848L372.28 17.9966ZM457.012 42.2346C459.654 45.1391 459.259 53.6983 456.319 57.2698C454.259 59.7737 451.463 60.3352 441.075 60.3352H428.354V50.2793V40.2235H441.768C450.169 40.2235 455.866 40.9743 457.012 42.2346Z" fill="#808080"/>
<path fill-rule="evenodd" clip-rule="evenodd" d="M13.439 11.3899L0.762195 22.7816L0.39939 45.3285L0.0350606 67.8771L6.49695 73.2117C10.0503 76.1464 14.4832 80.1168 16.3476 82.0358C20.8735 86.6933 25.689 88.5536 38.6723 90.657C44.6509 91.6257 53.5335 93.0687 58.4116 93.8631C68.8933 95.5709 71.6463 97.6659 71.6463 103.936C71.6463 109.882 69.7088 110.615 53.9848 110.615H41.1463L39.3125 103.073L37.4771 95.5307H18.7393H0L0.0792684 111.034L0.158537 126.536L13.3277 137.849L26.497 149.162H56.5107H86.5229L95.4726 141.536C100.393 137.341 104.649 133.193 104.928 132.318C105.209 131.442 106.114 130.726 106.944 130.726C111.782 130.726 112.805 125.814 112.805 102.57V79.2034L107.48 75.2162C104.552 73.024 102.151 70.6626 102.145 69.9721C102.139 69.2816 101.483 68.7151 100.689 68.7151C99.8933 68.7151 97.3918 66.8296 95.1296 64.5251C92.6006 61.9475 89.1966 60.3251 86.2866 60.3101C83.6844 60.2966 77.439 59.2542 72.4085 57.9922C67.378 56.7302 59.5427 55.1899 54.9954 54.5681C43.753 53.033 40.8643 51.1106 41.4482 45.5581C41.9207 41.0682 41.9421 41.0615 56.5015 40.5855L71.0838 40.1095L72.5076 46.4514L73.9329 52.7933L93.3689 53.2626L112.805 53.7318V39.3151C112.805 29.9581 112.136 24.2045 110.899 22.9173C109.852 21.8263 105.221 17.5793 100.61 13.4765C95.9985 9.37542 90.9985 4.66592 89.4985 3.01006C87.0579 0.315086 83.593 0 56.4436 0H26.1174L13.439 11.3899ZM132.622 17.4855C132.622 36.4592 131.976 35.0966 142.149 37.5855L146.341 38.6112V75.352V112.093L139.863 113.499L133.384 114.903L132.95 132.034L132.515 149.162H168.392H204.268V132.35C204.268 114.211 204.659 114.996 194.741 113.184L189.024 112.138V75.3754V38.6112L192.835 37.7413C194.931 37.2637 198.361 36.4793 200.457 36.0017C204.23 35.1402 204.268 34.9542 204.268 17.5659V0H168.445H132.622V17.4855ZM372.28 17.9966C372.678 34.5201 372.963 36.0352 375.762 36.4978C386.639 38.2961 385.671 34.5804 385.671 74.514C385.671 112.959 385.875 111.985 377.419 113.881L372.713 114.935L372.279 132.049L371.844 149.162H407.012H442.18L441.745 132.034L441.311 114.903L434.832 113.499C428.523 112.13 428.354 111.922 428.354 105.488V98.8827H451.143C467.709 98.8827 474.267 98.3112 475.152 96.7877C475.823 95.6363 479.802 91.7028 483.994 88.0475C488.186 84.3922 493.503 79.4916 495.808 77.1587L500 72.9151V49.1112C500 30.367 499.543 25.0207 497.849 23.9665C496.666 23.229 493.407 20.3547 490.608 17.5793C487.808 14.8039 482.361 9.71396 478.502 6.26648L471.485 0H421.666H371.848L372.28 17.9966ZM457.012 42.2346C459.654 45.1391 459.259 53.6983 456.319 57.2698C454.259 59.7737 451.463 60.3352 441.075 60.3352H428.354V50.2793V40.2235H441.768C450.169 40.2235 455.866 40.9743 457.012 42.2346Z" fill="black"/>
</svg>
